<svg width="30" height="50" viewBox="0 0 30 50" fill="none" xmlns="http://www.w3.org/2000/svg">
<path opacity="0.3" d="M1.00195 46.5L0.701971 46.4967C0.70108 46.5777 0.733019 46.6557 0.790518 46.7128C0.848015 46.7699 0.92618 46.8014 1.00722 46.8L1.00195 46.5ZM26.5077 46.3526L29.5323 47.7318L29.4716 44.2682L26.4972 45.7527L26.5077 46.3526ZM1.19156 1.94462C1.18973 2.1103 1.32257 2.24608 1.48824 2.2479C1.65392 2.24972 1.7897 2.11689 1.79152 1.95121L1.19156 1.94462ZM1.74985 5.74288C1.75167 5.5772 1.61884 5.44142 1.45317 5.4396C1.28749 5.43778 1.15171 5.57061 1.14989 5.73629L1.74985 5.74288ZM1.12906 7.63212C1.12723 7.7978 1.26007 7.93358 1.42574 7.9354C1.59142 7.93722 1.7272 7.80439 1.72902 7.63871L1.12906 7.63212ZM1.68735 11.4304C1.68917 11.2647 1.55634 11.1289 1.39067 11.1271C1.22499 11.1253 1.08921 11.2581 1.08739 11.4238L1.68735 11.4304ZM1.06656 13.3196C1.06473 13.4853 1.19757 13.6211 1.36324 13.6229C1.52892 13.6247 1.6647 13.4919 1.66652 13.3262L1.06656 13.3196ZM1.62485 17.1179C1.62667 16.9522 1.49384 16.8164 1.32817 16.8146C1.16249 16.8128 1.02671 16.9456 1.02489 17.1113L1.62485 17.1179ZM1.00406 19.0071C1.00223 19.1728 1.13507 19.3086 1.30074 19.3104C1.46642 19.3122 1.6022 19.1794 1.60402 19.0137L1.00406 19.0071ZM1.56235 22.8054C1.56417 22.6397 1.43134 22.5039 1.26567 22.5021C1.09999 22.5003 0.964209 22.6331 0.962387 22.7988L1.56235 22.8054ZM0.941555 24.6946C0.939734 24.8603 1.07257 24.9961 1.23824 24.9979C1.40392 24.9997 1.5397 24.8669 1.54152 24.7012L0.941555 24.6946ZM1.49985 28.4929C1.50167 28.3272 1.36884 28.1914 1.20317 28.1896C1.03749 28.1878 0.901709 28.3206 0.899887 28.4863L1.49985 28.4929ZM0.879055 30.3821C0.877234 30.5478 1.01007 30.6836 1.17574 30.6854C1.34142 30.6872 1.4772 30.5544 1.47902 30.3887L0.879055 30.3821ZM1.43735 34.1804C1.43917 34.0147 1.30634 33.8789 1.14067 33.8771C0.974991 33.8753 0.839209 34.0081 0.837387 34.1738L1.43735 34.1804ZM0.816555 36.0696C0.814734 36.2353 0.947565 36.3711 1.11324 36.3729C1.27892 36.3747 1.4147 36.2419 1.41652 36.0762L0.816555 36.0696ZM1.37485 39.8679C1.37667 39.7022 1.24384 39.5664 1.07817 39.5646C0.912491 39.5628 0.776709 39.6956 0.774887 39.8613L1.37485 39.8679ZM0.754055 41.7571C0.752234 41.9228 0.885065 42.0586 1.05074 42.0604C1.21642 42.0622 1.3522 41.9294 1.35402 41.7637L0.754055 41.7571ZM1.31235 45.5554C1.31417 45.3897 1.18134 45.2539 1.01567 45.2521C0.849991 45.2503 0.714209 45.3831 0.712387 45.5488L1.31235 45.5554ZM1.95722 46.7833C2.12288 46.7804 2.25481 46.6437 2.25191 46.4781C2.249 46.3124 2.11235 46.1805 1.94669 46.1834L1.95722 46.7833ZM5.74669 46.1167C5.58103 46.1196 5.44909 46.2563 5.452 46.4219C5.4549 46.5876 5.59155 46.7195 5.75722 46.7166L5.74669 46.1167ZM7.65722 46.6833C7.82287 46.6804 7.95481 46.5437 7.95191 46.3781C7.949 46.2124 7.81235 46.0805 7.64669 46.0834L7.65722 46.6833ZM11.4467 46.0167C11.281 46.0196 11.1491 46.1563 11.152 46.3219C11.1549 46.4876 11.2916 46.6195 11.4572 46.6166L11.4467 46.0167ZM13.3572 46.5833C13.5229 46.5804 13.6548 46.4437 13.6519 46.2781C13.649 46.1124 13.5124 45.9805 13.3467 45.9834L13.3572 46.5833ZM17.1467 45.9167C16.981 45.9196 16.8491 46.0563 16.852 46.2219C16.8549 46.3876 16.9916 46.5195 17.1572 46.5166L17.1467 45.9167ZM19.0572 46.4833C19.2229 46.4804 19.3548 46.3437 19.3519 46.1781C19.349 46.0124 19.2124 45.8805 19.0467 45.8834L19.0572 46.4833ZM22.8467 45.8167C22.681 45.8196 22.5491 45.9563 22.552 46.1219C22.5549 46.2876 22.6916 46.4195 22.8572 46.4166L22.8467 45.8167ZM24.7572 46.3833C24.9229 46.3804 25.0548 46.2437 25.0519 46.0781C25.049 45.9124 24.9123 45.7805 24.7467 45.7834L24.7572 46.3833ZM28.5467 45.7167C28.381 45.7196 28.2491 45.8563 28.252 46.0219C28.2549 46.1876 28.3916 46.3195 28.5572 46.3166L28.5467 45.7167ZM1.20197 0.996703L1.19156 1.94462L1.79152 1.95121L1.80194 1.0033L1.20197 0.996703ZM1.14989 5.73629L1.12906 7.63212L1.72902 7.63871L1.74985 5.74288L1.14989 5.73629ZM1.08739 11.4238L1.06656 13.3196L1.66652 13.3262L1.68735 11.4304L1.08739 11.4238ZM1.02489 17.1113L1.00406 19.0071L1.60402 19.0137L1.62485 17.1179L1.02489 17.1113ZM0.962387 22.7988L0.941555 24.6946L1.54152 24.7012L1.56235 22.8054L0.962387 22.7988ZM0.899887 28.4863L0.879055 30.3821L1.47902 30.3887L1.49985 28.4929L0.899887 28.4863ZM0.837387 34.1738L0.816555 36.0696L1.41652 36.0762L1.43735 34.1804L0.837387 34.1738ZM0.774887 39.8613L0.754055 41.7571L1.35402 41.7637L1.37485 39.8679L0.774887 39.8613ZM0.712387 45.5488L0.701971 46.4967L1.30194 46.5033L1.31235 45.5554L0.712387 45.5488ZM1.00722 46.8L1.95722 46.7833L1.94669 46.1834L0.996691 46.2L1.00722 46.8ZM5.75722 46.7166L7.65722 46.6833L7.64669 46.0834L5.74669 46.1167L5.75722 46.7166ZM11.4572 46.6166L13.3572 46.5833L13.3467 45.9834L11.4467 46.0167L11.4572 46.6166ZM17.1572 46.5166L19.0572 46.4833L19.0467 45.8834L17.1467 45.9167L17.1572 46.5166ZM22.8572 46.4166L24.7572 46.3833L24.7467 45.7834L22.8467 45.8167L22.8572 46.4166ZM1.00195 46.5L0.401989 46.4934C0.400208 46.6555 0.464087 46.8114 0.579081 46.9257C0.694077 47.0399 0.850405 47.1028 1.01248 47.0999L1.00195 46.5ZM23.5134 46.7052L29.5627 49.4636L29.4412 42.5364L23.4924 45.5053L23.5134 46.7052ZM0.891573 1.94132C0.887932 2.27267 1.15359 2.54424 1.48494 2.54788C1.81629 2.55152 2.08786 2.28586 2.0915 1.95451L0.891573 1.94132ZM2.04983 5.74618C2.05347 5.41483 1.78781 5.14326 1.45646 5.13962C1.12511 5.13598 0.853548 5.40164 0.849907 5.73299L2.04983 5.74618ZM0.829073 7.62882C0.825432 7.96018 1.09109 8.23174 1.42244 8.23538C1.75379 8.23902 2.02536 7.97336 2.029 7.64201L0.829073 7.62882ZM1.98733 11.4337C1.99097 11.1023 1.72531 10.8308 1.39396 10.8271C1.06261 10.8235 0.791048 11.0891 0.787407 11.4205L1.98733 11.4337ZM0.766573 13.3163C0.762932 13.6477 1.02859 13.9192 1.35994 13.9229C1.69129 13.9265 1.96286 13.6609 1.9665 13.3295L0.766573 13.3163ZM1.92483 17.1212C1.92847 16.7898 1.66281 16.5183 1.33146 16.5146C1.00011 16.511 0.728548 16.7766 0.724907 17.108L1.92483 17.1212ZM0.704073 19.0038C0.700432 19.3352 0.966093 19.6067 1.29744 19.6104C1.62879 19.614 1.90036 19.3484 1.904 19.017L0.704073 19.0038ZM1.86233 22.8087C1.86597 22.4773 1.60031 22.2058 1.26896 22.2021C0.937613 22.1985 0.666048 22.4641 0.662407 22.7955L1.86233 22.8087ZM0.641573 24.6913C0.637932 25.0227 0.903593 25.2942 1.23494 25.2979C1.56629 25.3015 1.83786 25.0359 1.8415 24.7045L0.641573 24.6913ZM1.79983 28.4962C1.80347 28.1648 1.53781 27.8933 1.20646 27.8896C0.875113 27.886 0.603548 28.1516 0.599907 28.483L1.79983 28.4962ZM0.579073 30.3788C0.575432 30.7102 0.841093 30.9817 1.17244 30.9854C1.50379 30.989 1.77536 30.7234 1.779 30.392L0.579073 30.3788ZM1.73733 34.1837C1.74097 33.8523 1.47531 33.5808 1.14396 33.5771C0.812613 33.5735 0.541048 33.8391 0.537405 34.1705L1.73733 34.1837ZM0.516573 36.0663C0.512932 36.3977 0.778593 36.6692 1.10994 36.6729C1.44129 36.6765 1.71286 36.4109 1.7165 36.0795L0.516573 36.0663ZM1.67483 39.8712C1.67847 39.5398 1.41281 39.2683 1.08146 39.2646C0.750113 39.261 0.478548 39.5266 0.474905 39.858L1.67483 39.8712ZM0.454073 41.7538C0.450432 42.0852 0.716093 42.3567 1.04744 42.3604C1.37879 42.364 1.65036 42.0984 1.654 41.767L0.454073 41.7538ZM1.61233 45.5587C1.61597 45.2273 1.35031 44.9558 1.01896 44.9521C0.687613 44.9485 0.416048 45.2141 0.412405 45.5455L1.61233 45.5587ZM1.96248 47.0832C2.2938 47.0774 2.55767 46.8041 2.55186 46.4728C2.54605 46.1415 2.27275 45.8776 1.94143 45.8834L1.96248 47.0832ZM5.74143 45.8168C5.41011 45.8226 5.14623 46.0959 5.15204 46.4272C5.15786 46.7585 5.43116 47.0224 5.76248 47.0166L5.74143 45.8168ZM7.66248 46.9832C7.9938 46.9774 8.25767 46.7041 8.25186 46.3728C8.24605 46.0415 7.97275 45.7776 7.64143 45.7834L7.66248 46.9832ZM11.4414 45.7168C11.1101 45.7226 10.8462 45.9959 10.852 46.3272C10.8579 46.6585 11.1312 46.9224 11.4625 46.9166L11.4414 45.7168ZM13.3625 46.8832C13.6938 46.8774 13.9577 46.6041 13.9519 46.2728C13.946 45.9415 13.6727 45.6776 13.3414 45.6834L13.3625 46.8832ZM17.1414 45.6168C16.8101 45.6226 16.5462 45.8959 16.552 46.2272C16.5579 46.5585 16.8312 46.8224 17.1625 46.8166L17.1414 45.6168ZM19.0625 46.7832C19.3938 46.7774 19.6577 46.5041 19.6519 46.1728C19.646 45.8415 19.3727 45.5776 19.0414 45.5834L19.0625 46.7832ZM22.8414 45.5168C22.5101 45.5226 22.2462 45.7959 22.252 46.1272C22.2579 46.4585 22.5312 46.7224 22.8625 46.7166L22.8414 45.5168ZM24.7625 46.6832C25.0938 46.6774 25.3577 46.4041 25.3519 46.0728C25.346 45.7415 25.0727 45.4776 24.7414 45.4834L24.7625 46.6832ZM28.5414 45.4168C28.2101 45.4226 27.9462 45.6959 27.952 46.0272C27.9579 46.3585 28.2312 46.6224 28.5625 46.6166L28.5414 45.4168ZM0.901989 0.993407L0.891573 1.94132L2.0915 1.95451L2.10192 1.00659L0.901989 0.993407ZM0.849907 5.73299L0.829073 7.62882L2.029 7.64201L2.04983 5.74618L0.849907 5.73299ZM0.787407 11.4205L0.766573 13.3163L1.9665 13.3295L1.98733 11.4337L0.787407 11.4205ZM0.724907 17.108L0.704073 19.0038L1.904 19.017L1.92483 17.1212L0.724907 17.108ZM0.662407 22.7955L0.641573 24.6913L1.8415 24.7045L1.86233 22.8087L0.662407 22.7955ZM0.599907 28.483L0.579073 30.3788L1.779 30.392L1.79983 28.4962L0.599907 28.483ZM0.537405 34.1705L0.516573 36.0663L1.7165 36.0795L1.73733 34.1837L0.537405 34.1705ZM0.474905 39.858L0.454073 41.7538L1.654 41.767L1.67483 39.8712L0.474905 39.858ZM0.412405 45.5455L0.401989 46.4934L1.60192 46.5066L1.61233 45.5587L0.412405 45.5455ZM1.01248 47.0999L1.96248 47.0832L1.94143 45.8834L0.991428 45.9001L1.01248 47.0999ZM5.76248 47.0166L7.66248 46.9832L7.64143 45.7834L5.74143 45.8168L5.76248 47.0166ZM11.4625 46.9166L13.3625 46.8832L13.3414 45.6834L11.4414 45.7168L11.4625 46.9166ZM17.1625 46.8166L19.0625 46.7832L19.0414 45.5834L17.1414 45.6168L17.1625 46.8166ZM22.8625 46.7166L24.7625 46.6832L24.7414 45.4834L22.8414 45.5168L22.8625 46.7166Z" fill="white"/>
</svg>
